<svg xmlns="http://www.w3.org/2000/svg" width="148" height="14" fill="none" viewBox="0 0 148 14">
  <g clip-path="url(#a)">
    <path fill="#F2F4F8" fill-opacity=".8" d="M74.516 6.876c0 1.49.565 2.918 1.63 3.974 1.067 1.056 2.51 1.614 4.015 1.614 3.136 0 5.645-2.483 5.645-5.588a5.393 5.393 0 0 0-1.568-4.037c-1.066-1.055-2.571-1.676-4.077-1.614-3.136.062-5.645 2.546-5.645 5.65Zm2.133 0c0-1.987 1.442-3.85 3.575-3.85s3.575 1.552 3.575 3.85c.063.993-.313 1.925-1.003 2.67a3.492 3.492 0 0 1-2.572 1.118c-2.133.062-3.575-1.553-3.575-3.788Zm-14.489 0a5.393 5.393 0 0 0 1.568 4.036c1.066 1.056 2.571 1.615 4.077 1.552 1.693.063 3.324-.745 4.328-2.11l.062-.063-1.568-1.304-.063.124c-.564 1.056-1.63 1.677-2.822 1.615-2.133 0-3.575-1.677-3.575-3.85-.063-.994.313-1.925.94-2.67.69-.746 1.631-1.18 2.635-1.18 1.129 0 2.195.62 2.822 1.552l.063.062 1.568-1.242-.062-.062c-1.067-1.304-2.697-2.049-4.391-2.049-1.505 0-2.948.559-3.952 1.615-1.003 1.055-1.63 2.484-1.63 3.974Zm79.534.869v4.471h2.007v-4.47l3.951-6.21h-2.195l-2.76 4.284-2.634-4.285h-2.321l3.952 6.21ZM105 1.535v10.681h2.07V8.242c.125 0 .314.062.502.062 2.634 0 4.453-1.118 4.453-3.353 0-2.112-1.568-3.416-4.516-3.416H105Zm2.07 1.615h.502c1.693 0 2.383.62 2.383 1.739 0 1.117-.752 1.738-2.383 1.738-.188 0-.314 0-.502-.062V3.15ZM91.326 6.441l3.387 6.086 3.325-6.086 1.317 5.775h2.132L98.665 1.35l-3.889 7.203-4.014-7.203-2.698 10.93h2.008l1.254-5.838ZM35.94 7.87l-7.15-6.52v10.928h1.945V5.944l7.213 6.583V1.534h-2.007V7.87ZM22.016 1.535v10.681h2.07V1.536h-2.07Zm-2.634 10.681-5.27-10.929-5.268 10.93h2.07l1.066-2.298h4.14l1.004 2.297h2.258Zm-6.649-3.974 1.38-3.105 1.254 3.105h-2.634ZM5.206 6.565C6.084 6.193 6.65 5.261 6.65 4.33c0-1.863-1.506-2.795-4.077-2.795H0v10.681h3.073c2.76 0 4.266-1.118 4.266-3.105-.063-1.242-.941-2.297-2.133-2.546ZM2.948 7.683c1.443 0 2.258.373 2.258 1.49 0 .994-.753 1.428-2.258 1.428H2.07V7.683h.878ZM2.07 6.068V3.15h.376c1.506 0 2.258.373 2.258 1.49 0 1.118-.752 1.428-2.195 1.428h-.44Zm51.308 6.21h2.384s-1.82-2.049-2.133-2.422c.25-.31 1.819-2.67 1.819-2.67h-1.944l-.941 1.429-1.694-1.925c1.443-.746 2.321-1.801 2.321-2.919 0-1.49-1.317-2.484-3.01-2.484-1.883 0-3.137 1.118-3.137 2.608.063.994.502 1.863 1.192 2.546-1.13.621-2.133 1.553-2.133 3.105 0 1.677 1.38 2.98 3.387 2.98 1.13 0 2.258-.434 3.011-1.303l.878 1.055Zm-4.453-8.32c0-.311.125-.684.376-.87.251-.248.565-.373.878-.373.314 0 .627.062.878.31a.806.806 0 0 1 .314.808c0 .745-.753 1.304-1.505 1.677-.502-.373-.879-.932-.941-1.553Zm2.446 6.085c-.376.497-1.004.807-1.694.807-.439.062-.815-.124-1.129-.373-.313-.31-.501-.683-.501-1.117.062-.745.501-1.366 1.129-1.739h.062l2.133 2.422Zm81.918-2.173-7.151-6.52v10.866h2.007V5.944l7.151 6.583V1.534h-2.007V7.87Zm-9.785 4.346-5.269-10.929-5.269 10.93h2.07l1.066-2.298h4.14l1.004 2.297h2.258Zm-6.649-3.974 1.38-3.105 1.254 3.105h-2.634Z"/>
  </g>
  <defs>
    <clipPath id="a">
      <path fill="#fff" d="M0 0h148v13H0z" transform="translate(0 .5)"/>
    </clipPath>
  </defs>
</svg>
