<svg xmlns="http://www.w3.org/2000/svg" width="64" height="20" fill="none" viewBox="0 0 64 20">
  <g clip-path="url(#a)">
    <g clip-path="url(#b)">
      <path fill="#fff" fill-opacity=".8" d="m27.61.012-10.38 7.79a8.874 8.874 0 0 0-3.206-4.841A9.259 9.259 0 0 0 8.45 1.054H1v17.904h7.45a9.023 9.023 0 0 0 5.615-1.857 8.639 8.639 0 0 0 3.165-4.89L27.61 20l10.381-7.79v6.748h11.71v-3.634h-7.724V1.042h-4.259v6.747l-9.847 7.79-2.123-1.818 4.793-3.634 5.054-3.888-2.93-2.338-9.848 7.522-2.123-1.817 9.847-7.268L27.611 0v.012ZM4.986 4.676h3.191a4.68 4.68 0 0 1 1.913.412 5.13 5.13 0 0 1 1.614 1.139 5.46 5.46 0 0 1 1.117 1.732 5.825 5.825 0 0 1 0 4.228 5.607 5.607 0 0 1-1.055 1.744c-.444.506-.99.918-1.602 1.211a4.716 4.716 0 0 1-2.024.449H4.986V4.676Zm58.002 10.648v3.634H51.29V1.042h4.26v14.282H63h-.012Z"/>
    </g>
  </g>
  <defs>
    <clipPath id="a">
      <path fill="#fff" d="M0 0h62v20H0z" transform="translate(1)"/>
    </clipPath>
    <clipPath id="b">
      <path fill="#fff" d="M0 0h62v20H0z" transform="translate(1)"/>
    </clipPath>
  </defs>
</svg>
