<svg xmlns="http://www.w3.org/2000/svg" width="117" height="32" fill="none" viewBox="0 0 117 32">
  <g clip-path="url(#a)">
    <g clip-path="url(#b)">
      <path fill="#F2F4F8" fill-opacity=".8" d="M24.76 6.598a23.836 23.836 0 0 0-6.03-1.892c-.26.469-.563 1.1-.772 1.6a22.18 22.18 0 0 0-6.683 0c-.21-.5-.52-1.131-.782-1.6a23.757 23.757 0 0 0-6.035 1.896C.64 12.36-.393 17.974.124 23.508c2.531 1.887 4.984 3.034 7.396 3.784a18.358 18.358 0 0 0 1.584-2.605 15.587 15.587 0 0 1-2.494-1.212c.209-.154.414-.316.611-.483 4.81 2.246 10.036 2.246 14.788 0 .2.167.404.329.611.483-.79.476-1.628.884-2.499 1.215.458.914.987 1.786 1.584 2.604 2.414-.75 4.87-1.896 7.4-3.786.608-6.416-1.036-11.978-4.344-16.91Zm-15 13.507c-1.444 0-2.628-1.346-2.628-2.985 0-1.638 1.158-2.986 2.627-2.986 1.47 0 2.653 1.345 2.628 2.986.002 1.639-1.159 2.985-2.628 2.985Zm9.71 0c-1.443 0-2.627-1.346-2.627-2.985 0-1.638 1.159-2.986 2.628-2.986s2.653 1.345 2.627 2.986c0 1.639-1.158 2.985-2.627 2.985Zm19.809-9.637h6.276c1.513 0 2.791.242 3.84.722 1.046.48 1.83 1.151 2.35 2.01.519.857.78 1.84.78 2.946 0 1.083-.27 2.065-.813 2.944-.543.881-1.368 1.578-2.478 2.091-1.11.513-2.486.771-4.13.771H39.28V10.468Zm5.761 8.566c1.019 0 1.803-.26 2.35-.778.547-.52.82-1.229.82-2.127 0-.832-.243-1.495-.73-1.992-.488-.497-1.226-.748-2.212-.748h-1.964v5.645h1.736Zm16.882 2.904a8.418 8.418 0 0 1-2.35-1v-2.725c.527.415 1.233.758 2.118 1.027.885.267 1.74.401 2.568.401.386 0 .678-.052.876-.155.198-.103.297-.227.297-.37a.56.56 0 0 0-.161-.41c-.108-.11-.318-.202-.628-.28l-1.931-.442c-1.106-.263-1.89-.626-2.356-1.093-.467-.464-.7-1.073-.7-1.828 0-.635.203-1.186.612-1.658.407-.47.986-.834 1.738-1.09.752-.257 1.63-.386 2.64-.386a9.77 9.77 0 0 1 2.478.295c.751.197 1.372.448 1.867.755v2.576a6.869 6.869 0 0 0-1.748-.731 7.68 7.68 0 0 0-2.037-.27c-1.01 0-1.512.176-1.512.525 0 .164.078.286.234.368.156.082.444.167.86.256l1.609.295c1.051.185 1.835.511 2.35.975.515.465.772 1.151.772 2.06 0 .997-.425 1.787-1.278 2.373-.853.586-2.062.88-3.63.88a10.579 10.579 0 0 1-2.688-.348Zm11.394-.345c-.921-.459-1.618-1.082-2.082-1.87-.465-.788-.7-1.674-.7-2.658 0-.985.242-1.866.725-2.642.483-.776 1.19-1.386 2.124-1.829.934-.443 2.049-.663 3.348-.663 1.609 0 2.945.345 4.007 1.034v3.002a4.982 4.982 0 0 0-1.31-.64 5.094 5.094 0 0 0-1.603-.246c-.998 0-1.777.186-2.34.558-.564.373-.846.858-.846 1.46 0 .591.273 1.074.82 1.454.548.377 1.34.567 2.382.567.536 0 1.065-.08 1.586-.236.52-.16.968-.354 1.343-.584v2.904c-1.18.722-2.547 1.083-4.104 1.083-1.31-.004-2.428-.234-3.35-.694Zm11.436 0c-.929-.459-1.637-1.087-2.124-1.887a5.038 5.038 0 0 1-.734-2.674c0-.985.244-1.864.734-2.635.49-.771 1.193-1.376 2.117-1.814.922-.439 2.023-.657 3.3-.657 1.275 0 2.376.218 3.299.657.922.438 1.625 1.038 2.108 1.805.483.766.724 1.645.724 2.641 0 .985-.241 1.876-.724 2.675-.483.8-1.189 1.428-2.118 1.887-.928.46-2.025.69-3.292.69s-2.363-.228-3.29-.688Zm4.89-2.91c.391-.4.589-.927.589-1.583 0-.657-.196-1.18-.589-1.566-.39-.39-.924-.584-1.6-.584-.687 0-1.225.195-1.618.584-.391.39-.587.91-.587 1.566s.196 1.184.587 1.582c.39.399.93.6 1.618.6.676-.002 1.21-.201 1.6-.6Zm14.204-6.147v3.544c-.409-.274-.938-.41-1.593-.41-.858 0-1.52.265-1.98.795-.462.53-.692 1.355-.692 2.47v3.02h-3.943v-9.6h3.863v3.053c.213-1.116.561-1.94 1.039-2.471.476-.53 1.092-.795 1.841-.795.568 0 1.056.131 1.465.394Zm13.1-2.396v11.815h-3.944v-2.15c-.333.809-.839 1.425-1.519 1.847-.681.42-1.522.63-2.52.63-.892 0-1.669-.22-2.333-.663-.665-.443-1.177-1.05-1.538-1.82-.359-.772-.541-1.644-.541-2.62-.011-1.005.18-1.907.573-2.707.391-.8.945-1.423 1.657-1.87.713-.448 1.527-.673 2.44-.673 1.878 0 3.138.832 3.781 2.494V10.14h3.944Zm-4.532 8.477c.403-.399.602-.917.602-1.55 0-.612-.195-1.111-.586-1.493-.391-.382-.927-.574-1.6-.574-.664 0-1.195.194-1.593.583-.398.39-.596.893-.596 1.517 0 .623.198 1.132.596 1.526.398.394.922.59 1.577.59.664-.002 1.198-.2 1.6-.6Zm-56.565-5.24c1.085 0 1.965-.806 1.965-1.8s-.88-1.8-1.965-1.8c-1.086 0-1.966.806-1.966 1.8s.88 1.8 1.965 1.8Zm-1.968 1.24c1.205.53 2.7.554 3.931 0v7.39h-3.931v-7.39Z"/>
    </g>
  </g>
  <defs>
    <clipPath id="a">
      <path fill="#fff" d="M0 0h117v32H0z"/>
    </clipPath>
    <clipPath id="b">
      <path fill="#fff" d="M0 0h117v32H0z"/>
    </clipPath>
  </defs>
</svg>
