<svg xmlns="http://www.w3.org/2000/svg" width="140" height="34" fill="none" viewBox="0 0 140 34">
  <path fill="#F2F4F8" fill-rule="evenodd" d="M8.29.716c3.36-.462 6.69 1.06 8.74 3.993l.526.754-1.464 2.096-1.308 1.873-1.27-1.82c-.813-1.164-2.017-1.93-3.349-2.129-1.331-.198-2.68.187-3.75 1.07-1.071.885-1.774 2.195-1.956 3.643-.181 1.449.174 2.915.988 4.079l3.182 4.556 5.294 7.58c.957 1.37 2.45 2.176 4.033 2.176 1.583 0 3.076-.805 4.033-2.176a5.85 5.85 0 0 0 1.027-3.332 5.85 5.85 0 0 0-1.027-3.33l-3.633-5.202 2.772-3.97 4.377 6.268c2.037 2.934 2.483 6.825 1.17 10.212-1.311 3.388-4.183 5.76-7.536 6.225-3.353.466-6.68-1.046-8.732-3.967L1.93 17.18C-.118 14.246-.572 10.347.74 6.95 2.051 3.556 4.929 1.18 8.29.716Zm16.858.021c2.49-.37 5.013.35 7.017 2 2 1.655 3.314 4.106 3.654 6.814.34 2.708-.32 5.452-1.839 7.63l-6.344 9.085c.675-2.446.55-5.072-.355-7.43l3.183-4.558c.813-1.163 1.167-2.63.986-4.077-.182-1.448-.885-2.757-1.955-3.641-1.07-.884-2.419-1.269-3.75-1.07-1.33.197-2.535.962-3.347 2.126l-8.476 12.136c-.819 1.176-1.17 2.659-.976 4.119l-3.583-5.13c.284-.67.633-1.304 1.043-1.893l8.476-12.136c1.522-2.175 3.776-3.604 6.266-3.975ZM12.946 23.871Z" clip-rule="evenodd"/>
  <path fill="#F2F4F8" d="m49.12 23.56-.161-3.928 12.78-13.167h3.67l-9.883 10.43-1.803 1.997-4.603 4.667ZM46.287 29V6.465h3.219V29h-3.22Zm15.967 0-9.239-10.752 2.157-2.383L66.02 29h-3.767Zm13.274.193c-1.717 0-3.241-.375-4.572-1.127a8.387 8.387 0 0 1-3.155-3.09c-.772-1.33-1.159-2.833-1.159-4.507 0-1.696.387-3.198 1.16-4.507a8.151 8.151 0 0 1 3.154-3.058c1.33-.752 2.855-1.127 4.572-1.127 1.695 0 3.208.376 4.539 1.127a7.87 7.87 0 0 1 3.155 3.058c.772 1.288 1.159 2.79 1.159 4.507 0 1.695-.387 3.198-1.16 4.507-.75 1.31-1.802 2.34-3.154 3.09-1.33.752-2.844 1.127-4.54 1.127Zm0-2.704c1.094 0 2.07-.247 2.93-.74a5.226 5.226 0 0 0 2.06-2.093c.493-.923.74-1.985.74-3.187 0-1.223-.247-2.275-.74-3.155a5.226 5.226 0 0 0-2.06-2.092c-.86-.494-1.836-.74-2.93-.74-1.095 0-2.071.246-2.93.74-.858.493-1.545 1.19-2.06 2.092-.515.88-.773 1.932-.773 3.155 0 1.202.258 2.264.773 3.187.515.901 1.202 1.599 2.06 2.093.859.493 1.835.74 2.93.74ZM88.655 29V11.938h2.961v4.636l-.29-1.16a5.24 5.24 0 0 1 2.383-2.704c1.116-.622 2.49-.933 4.12-.933v2.994a2.342 2.342 0 0 0-.386-.032h-.322c-1.652 0-2.961.493-3.927 1.48-.966.988-1.449 2.415-1.449 4.282V29h-3.09Zm22.03.193c-1.46 0-2.78-.322-3.96-.966-1.159-.665-2.082-1.641-2.768-2.93-.666-1.287-.998-2.896-.998-4.828 0-1.932.343-3.541 1.03-4.829.708-1.288 1.642-2.253 2.8-2.897 1.181-.644 2.479-.966 3.896-.966 1.674 0 3.155.365 4.442 1.095a8.055 8.055 0 0 1 3.059 3.058c.751 1.288 1.126 2.8 1.126 4.539 0 1.738-.375 3.262-1.126 4.571a8.055 8.055 0 0 1-3.059 3.059c-1.287.73-2.768 1.094-4.442 1.094ZM101.639 29V5.113h3.09v11.364l-.322 3.96.193 3.96V29h-2.961Zm8.788-2.511c1.095 0 2.071-.247 2.93-.74a5.227 5.227 0 0 0 2.06-2.093c.515-.923.773-1.985.773-3.187 0-1.223-.258-2.275-.773-3.155a5.227 5.227 0 0 0-2.06-2.092c-.859-.494-1.835-.74-2.93-.74-1.073 0-2.049.246-2.929.74-.859.493-1.546 1.19-2.061 2.092-.493.88-.74 1.932-.74 3.155 0 1.202.247 2.264.74 3.187.515.901 1.202 1.599 2.061 2.093.88.493 1.856.74 2.929.74ZM134.017 29v-3.606l-.161-.676V18.57c0-1.31-.387-2.318-1.159-3.027-.751-.73-1.889-1.094-3.413-1.094a8.775 8.775 0 0 0-2.961.515c-.966.322-1.782.762-2.447 1.32l-1.288-2.318c.88-.708 1.932-1.245 3.155-1.61a13.066 13.066 0 0 1 3.895-.579c2.34 0 4.143.569 5.409 1.706 1.266 1.138 1.899 2.876 1.899 5.215V29h-2.929Zm-5.602.193c-1.266 0-2.382-.215-3.348-.644-.944-.429-1.674-1.02-2.189-1.77a4.596 4.596 0 0 1-.773-2.608c0-.923.215-1.76.644-2.51.451-.752 1.17-1.353 2.157-1.804 1.009-.45 2.361-.676 4.056-.676h5.409v2.221h-5.28c-1.545 0-2.586.258-3.123.773-.536.515-.804 1.138-.804 1.867 0 .837.332 1.513.998 2.028.665.494 1.588.74 2.768.74 1.159 0 2.168-.257 3.026-.772.88-.515 1.513-1.266 1.9-2.253l.611 2.125c-.407 1.008-1.126 1.813-2.157 2.414-1.03.58-2.328.87-3.895.87Z"/>
</svg>
