<svg xmlns="http://www.w3.org/2000/svg" width="80" height="26" fill="none" viewBox="0 0 80 26">
  <g clip-path="url(#a)">
    <g clip-path="url(#b)">
      <path fill="#fff" fill-opacity=".8" d="M48.722 14.507s-.16-.622-.16-1.083V6.209h2.734v13.896l-8.755-7.66c-.468-.42-.745-.89-.745-.89s.139.518.139.966l-.003 7.27h-2.736V5.95l8.674 7.506c.466.417.852 1.05.852 1.05ZM73.48 6.21c4.334 0 5.444 1.806 5.444 4.4 0 1.882-1.311 3.725-3.955 3.943l-.29.015s.256.047.523.32L80 19.79h-3.707l-6.698-7.186h3.335c2.987 0 3.074-1.663 3.094-2.082.056-1.08-.27-1.943-2.548-1.943h-3.814V19.79h-2.841V6.21h6.66Zm-20.954 6.984c0-5.69 4.507-7.184 8.295-7.184 1.517 0 2.86.143 4.274.46l.004 2.885c-.813-.264-2.445-.844-4.277-.844-3.592 0-5.336 1.475-5.336 4.683 0 2.628 1.88 4.303 5.336 4.303 1.832 0 3.666-.461 4.554-.807l-.005 2.799a21.58 21.58 0 0 1-4.55.51c-4.046 0-8.295-2.079-8.295-6.804ZM21.755 6.56l2.667 2.653a6 6 0 0 0-.256.13 5.104 5.104 0 0 0-.559.36c-.44.319-1.012.828-1.745 1.664l-5.212 5.828c-.893.998-1.8 1.788-2.645 2.206l-2.668-2.655c.073-.035.157-.075.254-.13.154-.083.338-.199.559-.358.438-.322 1.012-.829 1.746-1.666l5.21-5.818c.894-.996 1.804-1.797 2.649-2.215Z"/>
      <path fill="#fff" fill-opacity=".8" d="M11.432 20.648c1.178 0 2.262-.247 2.997-.65a8.74 8.74 0 0 0 1.228-.843c.411-.339.993-.866 1.486-1.42l5.217-5.811c1.316-1.465 2.107-1.917 2.587-2.095l2.676 2.678c-.559.631-7.219 8.127-7.219 8.127a24.223 24.223 0 0 1-1.258 1.333c-.312.305-.846.758-1.122.972-1.567 1.212-3.66 2.196-6.477 2.196C5.163 25.135 0 19.644 0 13.32 0 5.477 5.8.926 11.082.926a10.558 10.558 0 0 1 3.945.604c.95.342 1.666.754 2.186 1.035-.615.416-1.21.984-2.19 2.09l-1.071 1.216a7.09 7.09 0 0 0-2.742-.458c-3.39.105-7.096 3.008-6.962 7.77.124 4.454 3.598 7.464 7.184 7.464Z"/>
      <path fill="#fff" fill-opacity=".8" d="M21.296 6.002a8.946 8.946 0 0 0-1.23.844c-.41.338-.992.866-1.486 1.418l-5.216 5.813c-1.316 1.465-2.107 1.915-2.587 2.094l-2.676-2.676c.56-.633 7.22-8.128 7.22-8.128a25.26 25.26 0 0 1 1.257-1.334 16.31 16.31 0 0 1 1.125-.972C19.267 1.85 21.362.865 24.18.865c6.384 0 11.544 5.492 11.544 11.813 0 7.846-5.798 12.395-11.082 12.395-1.618.052-2.918-.236-3.944-.607-.951-.34-1.67-.755-2.19-1.035.65-.463 1.206-.97 2.194-2.086l1.07-1.215a7.17 7.17 0 0 0 2.743.457c3.388-.107 7.096-3.013 6.963-7.774-.126-4.45-3.602-7.462-7.186-7.462-1.18 0-2.26.248-2.996.65Z"/>
    </g>
  </g>
  <defs>
    <clipPath id="a">
      <path fill="#fff" d="M0 0h80v24.27H0z" transform="translate(0 .865)"/>
    </clipPath>
    <clipPath id="b">
      <path fill="#fff" d="M0 0h80v24.27H0z" transform="translate(0 .865)"/>
    </clipPath>
  </defs>
</svg>
