<svg xmlns="http://www.w3.org/2000/svg" width="67" height="22" fill="none" viewBox="0 0 67 22">
  <g clip-path="url(#a)">
    <g clip-path="url(#b)">
      <path fill="#fff" fill-opacity=".8" d="m16.629 21.5 37.254-3.4H13.4l3.229 3.4ZM62.52 4.07a3.832 3.832 0 0 0-2.14.723v-.467h-2.502v11.563h2.503v-6.76a2.279 2.279 0 0 1 .118-.872 2.18 2.18 0 0 1 .437-.75c.193-.217.426-.39.684-.507a1.974 1.974 0 0 1 1.638 0c.259.118.491.29.684.506.193.217.342.472.437.751.096.28.136.576.119.873v6.801H67V9.13c0-2.806-1.816-5.06-4.48-5.06Zm-10.413-.042c-2.906 0-4.965 2.678-4.965 6.08 0 3.57 2.583 6.078 5.207 6.078 1.332 0 2.987-.467 4.4-2.593l-2.22-1.36c-1.696 2.635-4.561 1.318-4.884-1.36h7.184c.646-4.082-1.897-6.845-4.722-6.845Zm-2.3 4.591c.524-2.678 3.995-2.848 4.48 0h-4.48Zm-8.38 3.874a4.14 4.14 0 0 0 .233 1.556c.177.497.446.951.793 1.336.346.385.763.692 1.224.904.462.211.96.323 1.463.327a5.072 5.072 0 0 0 2.422-.722l-1.614-2.296a1.47 1.47 0 0 1-.848.298 1.161 1.161 0 0 1-.48-.12 1.219 1.219 0 0 1-.395-.313 1.296 1.296 0 0 1-.244-.453 1.34 1.34 0 0 1-.052-.517V7.519h2.14V4.756h-2.14v-2.89h-2.502v2.89h-1.332v2.763h1.332v4.974Zm-6.434 3.693a3.832 3.832 0 0 0 2.14-.722v.425h2.502V4.326h-2.502v6.801c.017.297-.023.593-.118.873a2.198 2.198 0 0 1-.438.75 2.066 2.066 0 0 1-.684.507 1.972 1.972 0 0 1-1.638 0 2.066 2.066 0 0 1-.684-.506 2.195 2.195 0 0 1-.437-.751 2.277 2.277 0 0 1-.118-.873V4.326h-2.503v6.801c0 2.806 1.817 5.06 4.48 5.06Z"/>
      <path fill="#fff" fill-opacity=".8" d="m23.611 11.17 3.714 4.761h3.47l-4.964-6.164 4.279-5.441h-3.471L23.61 8.364V.5h-2.54v15.431h2.542V11.17Zm-6.457 4.209v.51h2.502V4.326h-2.502v.51a3.92 3.92 0 0 0-2.341-.808c-2.826 0-5.005 2.721-5.005 6.08 0 3.358 2.139 6.078 5.005 6.078.842 0 1.662-.283 2.34-.807Zm-4.803-5.23c0-1.827 1.009-3.272 2.421-3.272 1.413 0 2.382 1.445 2.382 3.273s-.969 3.273-2.382 3.273c-1.412 0-2.421-1.445-2.421-3.273Z"/>
      <path fill="#fff" fill-opacity=".8" d="M9 6.409a5.115 5.115 0 0 0-1.384-3.516 4.609 4.609 0 0 0-3.338-1.458H0V15.89h2.623v-4.464H4.44l3.188 4.464h3.27l-3.875-5.4a4.872 4.872 0 0 0 1.466-1.784c.344-.71.52-1.5.512-2.297ZM4.32 8.705H2.623V4.198H4.32c.567 0 1.111.238 1.512.66.401.423.627.996.627 1.594 0 .597-.226 1.17-.627 1.593-.4.422-.945.66-1.512.66Z"/>
    </g>
  </g>
  <defs>
    <clipPath id="a">
      <path fill="#fff" d="M0 0h67v21H0z" transform="translate(0 .5)"/>
    </clipPath>
    <clipPath id="b">
      <path fill="#fff" d="M0 0h67v21H0z" transform="translate(0 .5)"/>
    </clipPath>
  </defs>
</svg>
