<svg xmlns="http://www.w3.org/2000/svg" width="87" height="18" fill="none" viewBox="0 0 87 18">
  <g clip-path="url(#a)">
    <g clip-path="url(#b)">
      <path fill="#fff" fill-opacity=".8" d="M57.856 15.183a4.308 4.308 0 0 0 3.103-1.23l1.54 1.691C61.48 16.71 60.075 17.5 57.883 17.5c-3.755 0-6.178-2.541-6.178-5.98a5.972 5.972 0 0 1 .394-2.256 5.88 5.88 0 0 1 1.211-1.929c.524-.555 1.15-1 1.842-1.308a5.648 5.648 0 0 1 2.193-.488h.209c3.727 0 5.84 2.894 5.655 6.91h-8.821c.314 1.668 1.46 2.73 3.468 2.73v.004Zm2.687-4.662c-.236-1.555-1.147-2.702-2.974-2.702a2.989 2.989 0 0 0-2.113.71 3.108 3.108 0 0 0-1.068 1.992h6.155ZM0 15.059l6.783-7.031H.161V5.819h9.764v2.253l-6.783 7.031h6.874v2.205H0v-2.25Zm17.632.124a4.308 4.308 0 0 0 3.103-1.23l1.54 1.691C21.256 16.71 19.85 17.5 17.658 17.5c-3.755 0-6.178-2.541-6.178-5.98a5.972 5.972 0 0 1 .393-2.254 5.88 5.88 0 0 1 1.21-1.928c.522-.555 1.147-1 1.839-1.309a5.65 5.65 0 0 1 2.19-.49h.209c3.727 0 5.84 2.894 5.655 6.91h-8.813c.314 1.668 1.46 2.73 3.468 2.73v.004Zm2.686-4.662c-.235-1.555-1.146-2.702-2.973-2.702a2.989 2.989 0 0 0-2.113.71 3.109 3.109 0 0 0-1.068 1.992h6.154Zm17.298 1.01c0-3.675 2.69-5.972 5.652-5.972.71-.01 1.415.14 2.063.438a4.88 4.88 0 0 1 1.688 1.285V.5h2.396v16.776H47.02v-1.604a4.831 4.831 0 0 1-1.684 1.347 4.735 4.735 0 0 1-2.09.469 5.577 5.577 0 0 1-2.169-.458 5.672 5.672 0 0 1-1.832-1.27 5.804 5.804 0 0 1-1.216-1.888 5.898 5.898 0 0 1-.416-2.22v-.137l.004.016Zm9.537-.04a3.725 3.725 0 0 0-1.088-2.58 3.575 3.575 0 0 0-2.554-1.05c-.953.008-1.865.4-2.537 1.091a3.727 3.727 0 0 0-1.048 2.597 3.73 3.73 0 0 0 1.048 2.598 3.578 3.578 0 0 0 2.537 1.09 3.575 3.575 0 0 0 2.553-1.05 3.724 3.724 0 0 0 1.089-2.58v-.116Zm17.608 3.347 2.168-1.15c.288.521.71.953 1.22 1.248.51.296 1.089.443 1.675.428 1.355 0 2.058-.71 2.058-1.516 0-.918-1.312-1.126-2.75-1.423-1.92-.4-3.927-1.058-3.927-3.423 0-1.816 1.693-3.491 4.364-3.471 2.101 0 3.66.85 4.544 2.228L72.13 8.886a2.942 2.942 0 0 0-1.1-.99 2.873 2.873 0 0 0-1.434-.321c-1.288 0-1.944.645-1.944 1.379 0 .826 1.04 1.058 2.667 1.423 1.854.4 3.955 1.034 3.955 3.423 0 1.604-1.355 3.724-4.568 3.7-2.356 0-4.002-.966-4.949-2.666m16.029-2.661-1.9 2.112v2.99h-2.397V.5h2.396v10.983l5.087-5.7h2.918l-4.411 4.919 4.52 6.574h-2.71l-3.503-5.103ZM30.373 5.555c-2.847 0-5.231 1.884-5.231 5.01v6.71h2.443v-6.413c0-1.884 1.06-3.01 2.87-3.01 1.812 0 2.715 1.126 2.715 3.01v6.414h2.431V10.56c0-3.126-2.384-5.01-5.232-5.01"/>
    </g>
  </g>
  <defs>
    <clipPath id="a">
      <path fill="#fff" d="M0 0h87v17H0z" transform="translate(0 .5)"/>
    </clipPath>
    <clipPath id="b">
      <path fill="#fff" d="M0 0h87v17H0z" transform="translate(0 .5)"/>
    </clipPath>
  </defs>
</svg>
